<?xml version="1.0" encoding="UTF-8"?>
<svg id="Layer_1" xmlns="http://www.w3.org/2000/svg" version="1.1" viewBox="0 0 236.56 236.56">
  <!-- Generator: Adobe Illustrator 29.8.1, SVG Export Plug-In . SVG Version: 2.1.1 Build 2)  -->
  <rect x=".5" y=".5" width="235.56" height="235.56" rx="19" ry="19" fill="#231f20" stroke="#231f20" stroke-miterlimit="10"/>
  <g>
    <g>
      <circle cx="95.61" cy="40.46" r="16.55" fill="none" stroke="#ec4762" stroke-linecap="round" stroke-linejoin="round" stroke-width="12"/>
      <path d="M122.08,83.47c0-14.62-11.85-26.47-26.47-26.47s-26.47,11.85-26.47,26.47" fill="none" stroke="#ec4762" stroke-linecap="round" stroke-linejoin="round" stroke-width="12"/>
    </g>
    <g>
      <path d="M127.14,180.44v47.79" fill="none" stroke="#ec4762" stroke-linecap="round" stroke-linejoin="round" stroke-width="11"/>
      <path d="M165.36,161.32v66.9" fill="none" stroke="#ec4762" stroke-linecap="round" stroke-linejoin="round" stroke-width="11"/>
      <path d="M203.59,123.09v105.12" fill="none" stroke="#ec4762" stroke-linecap="round" stroke-linejoin="round" stroke-width="11"/>
      <path d="M222.7,56.19l-82.63,82.63c-1.86,1.86-4.89,1.88-6.76,0h0l-31.46-31.46c-1.86-1.86-4.89-1.86-6.76,0l-63.52,63.52" fill="none" stroke="#ec4762" stroke-linecap="round" stroke-linejoin="round" stroke-width="11"/>
      <path d="M50.68,199.55v28.67" fill="none" stroke="#ec4762" stroke-linecap="round" stroke-linejoin="round" stroke-width="11"/>
      <path d="M88.91,161.32v66.9" fill="none" stroke="#ec4762" stroke-linecap="round" stroke-linejoin="round" stroke-width="11"/>
    </g>
  </g>
  <g>
    <g>
      <circle cx="80.73" cy="26.02" r="16.55" fill="none" stroke="#65c9d3" stroke-linecap="round" stroke-linejoin="round" stroke-width="12"/>
      <path d="M107.2,69.03c0-14.62-11.85-26.47-26.47-26.47s-26.47,11.85-26.47,26.47" fill="none" stroke="#65c9d3" stroke-linecap="round" stroke-linejoin="round" stroke-width="12"/>
    </g>
    <g>
      <path d="M112.26,165.99v47.79" fill="none" stroke="#65c9d3" stroke-linecap="round" stroke-linejoin="round" stroke-width="11"/>
      <path d="M150.48,146.87v66.9" fill="none" stroke="#65c9d3" stroke-linecap="round" stroke-linejoin="round" stroke-width="11"/>
      <path d="M188.71,108.65v105.12" fill="none" stroke="#65c9d3" stroke-linecap="round" stroke-linejoin="round" stroke-width="11"/>
      <path d="M207.83,41.75l-82.63,82.63c-1.86,1.86-4.89,1.88-6.76,0h0l-31.46-31.46c-1.86-1.86-4.89-1.86-6.76,0l-63.52,63.52" fill="none" stroke="#65c9d3" stroke-linecap="round" stroke-linejoin="round" stroke-width="11"/>
      <path d="M35.8,185.1v28.67" fill="none" stroke="#65c9d3" stroke-linecap="round" stroke-linejoin="round" stroke-width="11"/>
      <path d="M74.03,146.87v66.9" fill="none" stroke="#65c9d3" stroke-linecap="round" stroke-linejoin="round" stroke-width="11"/>
    </g>
  </g>
  <g>
    <g>
      <circle cx="87.84" cy="32.38" r="16.55" fill="none" stroke="#fff" stroke-linecap="round" stroke-linejoin="round" stroke-width="12"/>
      <path d="M114.3,75.39c0-14.62-11.85-26.47-26.47-26.47s-26.47,11.85-26.47,26.47" fill="none" stroke="#fff" stroke-linecap="round" stroke-linejoin="round" stroke-width="12"/>
    </g>
    <g>
      <path d="M119.37,172.35v47.79" fill="none" stroke="#fff" stroke-linecap="round" stroke-linejoin="round" stroke-width="11"/>
      <path d="M157.59,153.23v66.9" fill="none" stroke="#fff" stroke-linecap="round" stroke-linejoin="round" stroke-width="11"/>
      <path d="M195.82,115.01v105.12" fill="none" stroke="#fff" stroke-linecap="round" stroke-linejoin="round" stroke-width="11"/>
      <path d="M214.93,48.11l-82.63,82.63c-1.86,1.86-4.89,1.88-6.76,0h0l-31.46-31.46c-1.86-1.86-4.89-1.86-6.76,0l-63.52,63.52" fill="none" stroke="#fff" stroke-linecap="round" stroke-linejoin="round" stroke-width="11"/>
      <path d="M42.91,191.46v28.67" fill="none" stroke="#fff" stroke-linecap="round" stroke-linejoin="round" stroke-width="11"/>
      <path d="M81.13,153.23v66.9" fill="none" stroke="#fff" stroke-linecap="round" stroke-linejoin="round" stroke-width="11"/>
    </g>
  </g>
</svg>